<svg xmlns="http://www.w3.org/2000/svg" viewBox="0 0 512 512">
<defs>
 <radialGradient id="bg" cx="50%" cy="30%" r="80%"><stop stop-color="#5d2e91"/><stop offset=".5" stop-color="#1b1238"/><stop offset="1" stop-color="#07040d"/></radialGradient>
 <linearGradient id="glow" x1="0" y1="0" x2="1" y2="1"><stop stop-color="#f6d88d"/><stop offset=".45" stop-color="#e9b8ff"/><stop offset="1" stop-color="#82f2ff"/></linearGradient>
 <filter id="s"><feGaussianBlur stdDeviation="8" result="b"/><feMerge><feMergeNode in="b"/><feMergeNode in="SourceGraphic"/></feMerge></filter>
</defs>
<rect width="512" height="512" rx="104" fill="url(#bg)"/>
<circle cx="256" cy="256" r="190" fill="none" stroke="#d9baff" stroke-opacity=".18" stroke-width="3"/>
<g fill="#fff" opacity=".72"><circle cx="94" cy="112" r="3"/><circle cx="414" cy="92" r="4"/><circle cx="393" cy="344" r="3"/><circle cx="116" cy="370" r="4"/><circle cx="335" cy="139" r="2"/></g>
<g stroke="url(#glow)" stroke-width="24" fill="none" stroke-linecap="round" stroke-linejoin="round" filter="url(#s)">
 <path d="M256 88c52 0 94 42 94 94 0 48-35 88-80 94 23 21 37 52 37 84 0 9-1 17-3 25"/>
 <path d="M171 318c-45-5-80-44-80-92 0-52 42-94 94-94 33 0 62 17 79 43 17-26 46-43 79-43"/>
 <path d="M208 385c-2-8-3-16-3-25 0-32 14-63 37-84-45-6-80-46-80-94"/>
</g>
<circle cx="256" cy="256" r="28" fill="#fbf5ff" filter="url(#s)"/><circle cx="256" cy="256" r="13" fill="#8ef1ff"/>
</svg>
