<svg xmlns="http://www.w3.org/2000/svg" viewBox="0 0 200 180" fill="none">
  <defs>
    <linearGradient id="g" x1="0" x2="1" y1="0" y2="1">
      <stop offset="0%" stop-color="#f6e7ff"/>
      <stop offset="40%" stop-color="#90f6ff"/>
      <stop offset="70%" stop-color="#b4ff9a"/>
      <stop offset="100%" stop-color="#f2b1ff"/>
    </linearGradient>
  </defs>
  <path d="M100 20c26 0 47 21 47 47 0 24-17 44-40 47 11 10 18 25 18 41 0 4 0 8-1 12" stroke="url(#g)" stroke-width="10" stroke-linecap="round"/>
  <path d="M58 134c-23-2-41-22-41-47 0-26 21-47 47-47 16 0 31 8 39 21 8-13 23-21 39-21" stroke="url(#g)" stroke-width="10" stroke-linecap="round"/>
  <path d="M76 167c-1-4-1-8-1-12 0-16 7-31 18-41-23-3-40-23-40-47" stroke="url(#g)" stroke-width="10" stroke-linecap="round"/>
  <circle cx="100" cy="98" r="12" fill="#fff6ff" opacity=".92"/>
  <circle cx="100" cy="98" r="6" fill="#7af6ff"/>
</svg>
